<svg width="176" height="46" viewBox="0 0 176 46" fill="none" xmlns="http://www.w3.org/2000/svg">
<g clip-path="url(#clip0_1254_58354)">
<path d="M164.689 22.0108C165.687 22.3846 166.742 22.5817 167.808 22.5935C169.689 22.5935 171.202 22.1112 172.345 21.1467C173.488 20.1822 174.06 18.913 174.06 17.3393C174.087 16.5561 173.877 15.783 173.457 15.1211C173.055 14.5285 172.43 14.0407 171.583 13.6578L170.756 13.2687C170.675 13.234 170.562 13.181 170.408 13.1032C169.882 12.8637 169.619 12.6358 169.619 12.4195C169.618 12.3362 169.638 12.254 169.675 12.1796C169.713 12.1051 169.767 12.0405 169.834 11.9908C169.992 11.874 170.185 11.8155 170.382 11.8253C170.802 11.8399 171.212 11.9618 171.572 12.1795C172.059 12.4594 172.509 12.7986 172.913 13.1893L175.114 9.45971C174.257 8.92564 173.336 8.50078 172.373 8.195C171.497 7.92671 170.586 7.79003 169.67 7.78944C167.928 7.78944 166.506 8.24632 165.404 9.16009C164.876 9.57842 164.451 10.1134 164.164 10.7231C163.877 11.3328 163.735 12.0007 163.749 12.6745C163.734 13.3905 163.94 14.0938 164.338 14.6891C164.726 15.2629 165.333 15.7684 166.159 16.2054L167.202 16.7566L167.294 16.7964C167.922 17.1274 168.231 17.4188 168.231 17.6787C168.233 17.7594 168.216 17.8394 168.18 17.9118C168.144 17.9842 168.091 18.0468 168.026 18.0942C167.873 18.2068 167.688 18.265 167.498 18.2597C166.99 18.2597 166.409 18.0787 165.755 17.7167C165.027 17.2985 164.359 16.784 163.768 16.1872L161.333 20.266C162.377 20.9817 163.505 21.5676 164.69 22.0108H164.689ZM155.374 10.2245C154.989 9.48384 154.422 8.85323 153.727 8.39199C153.041 7.97961 152.252 7.77117 151.452 7.79109C150.494 7.78622 149.551 8.02975 148.714 8.49794C147.804 9.02158 147.017 9.73389 146.405 10.587C145.784 11.4206 145.302 12.3498 144.98 13.3383C144.65 14.333 144.482 15.3743 144.483 16.4222C144.483 18.2343 144.963 19.7115 145.922 20.8537C146.629 21.701 147.608 22.2768 148.692 22.483C149.776 22.6891 150.898 22.5129 151.866 21.9843C152.615 21.5362 153.26 20.9349 153.76 20.2197L153.263 22.0803H159.408L161.979 8.23142H155.621L155.374 10.2245ZM153.934 13.8514C154.228 14.1818 154.379 14.6149 154.356 15.0566C154.379 15.6177 154.187 16.1665 153.82 16.5911C153.645 16.786 153.431 16.9404 153.19 17.0434C152.95 17.1464 152.69 17.1954 152.429 17.187C152.235 17.1984 152.041 17.1685 151.859 17.0991C151.678 17.0298 151.513 16.9226 151.376 16.7848C151.131 16.5149 151.01 16.1342 151.01 15.626C150.985 15.0489 151.166 14.4815 151.52 14.0253C151.673 13.8277 151.869 13.6687 152.095 13.5609C152.32 13.4531 152.567 13.3995 152.816 13.4045C153.023 13.3955 153.229 13.4301 153.422 13.5059C153.614 13.5818 153.789 13.6972 153.934 13.8448V13.8514ZM142.383 16.9371C142.077 17.1032 141.754 17.2358 141.419 17.3327C141.136 17.4138 140.844 17.4562 140.55 17.4585C139.888 17.4585 139.363 17.2715 138.969 16.8924C138.771 16.6936 138.616 16.4556 138.515 16.1936C138.414 15.9317 138.369 15.6515 138.383 15.3711C138.371 15.0451 138.425 14.72 138.542 14.4153C138.658 14.1107 138.835 13.8327 139.062 13.5982C139.293 13.3698 139.568 13.1914 139.871 13.0741C140.173 12.9567 140.497 12.903 140.822 12.9161C141.172 12.9195 141.52 12.9868 141.846 13.1148C142.257 13.2788 142.651 13.4846 143.02 13.7289L143.952 8.58071C142.796 8.05586 141.54 7.78654 140.27 7.79109C139.107 7.77961 137.952 7.9967 136.872 8.43007C135.829 8.85794 134.885 9.49644 134.101 10.3056C133.368 11.0595 132.796 11.9544 132.419 12.936C132.023 13.9537 131.823 15.0372 131.829 16.1292C131.829 18.0296 132.456 19.5818 133.708 20.7858C134.961 21.9898 136.574 22.5924 138.547 22.5935C139.007 22.5911 139.466 22.5485 139.919 22.466C140.456 22.3693 140.987 22.2377 141.507 22.0721L142.383 16.9371ZM125.081 22.0721L126.205 15.8991C126.392 14.8662 126.671 14.1527 127.047 13.767C127.423 13.3813 127.987 13.1827 128.749 13.1827C129.083 13.1873 129.416 13.2284 129.742 13.3052C130.159 13.3988 130.571 13.5148 130.975 13.6528L132.02 8.00298C131.661 7.93345 131.358 7.88048 131.101 7.83744C130.877 7.80507 130.651 7.78793 130.424 7.78612C129.671 7.7726 128.928 7.97106 128.282 8.35888C127.597 8.80444 127.031 9.40939 126.632 10.1219L127.098 8.23639H121.127L118.545 22.077L125.081 22.0721ZM112.071 10.2245C111.689 9.48347 111.124 8.85259 110.429 8.39199C109.741 7.9798 108.951 7.77141 108.149 7.79109C107.192 7.7864 106.251 8.02994 105.416 8.49794C104.503 9.02087 103.713 9.73321 103.099 10.587C102.477 11.4202 101.995 12.3495 101.673 13.3383C101.344 14.333 101.176 15.3743 101.177 16.4222C101.177 18.2343 101.656 19.7115 102.615 20.8537C103.322 21.701 104.301 22.2768 105.385 22.483C106.469 22.6891 107.591 22.5129 108.56 21.9843C109.309 21.5369 109.953 20.9354 110.452 20.2197L109.955 22.0803H116.1L118.674 8.23142H112.314L112.071 10.2245ZM110.632 13.8514C110.928 14.1812 111.08 14.6146 111.056 15.0566C111.079 15.6179 110.886 16.1666 110.518 16.5911C110.344 16.7863 110.13 16.9409 109.889 17.0439C109.649 17.1468 109.389 17.1957 109.128 17.187C108.934 17.1983 108.74 17.1683 108.559 17.0989C108.378 17.0296 108.213 16.9225 108.076 16.7848C107.833 16.5149 107.711 16.1342 107.711 15.626C107.686 15.0494 107.865 14.4827 108.217 14.0253C108.372 13.8286 108.57 13.6707 108.796 13.5641C109.022 13.4575 109.27 13.4051 109.52 13.4111C109.726 13.4023 109.932 13.4369 110.125 13.5127C110.317 13.5886 110.491 13.704 110.636 13.8514H110.632ZM80.5856 22.0721L81.7096 15.9289C81.9181 14.7768 82.1532 13.991 82.4147 13.5717C82.5206 13.3791 82.6767 13.2188 82.8665 13.108C83.0563 12.9972 83.2727 12.9401 83.4924 12.9426C83.6016 12.9368 83.7108 12.956 83.8115 12.9987C83.9122 13.0415 84.0018 13.1066 84.0734 13.1893C84.2251 13.3962 84.2989 13.65 84.282 13.9061C84.281 14.0936 84.2694 14.281 84.2473 14.4672C84.2274 14.6742 84.1926 14.8976 84.1496 15.1294L82.7707 22.0638H89.3789L90.5062 15.9207C90.7115 14.7685 90.9455 13.9828 91.2081 13.5634C91.3142 13.371 91.4704 13.211 91.6602 13.1002C91.8499 12.9895 92.0661 12.9321 92.2858 12.9344C92.3904 12.9286 92.495 12.9461 92.592 12.9856C92.689 13.0251 92.7761 13.0856 92.847 13.1628C92.99 13.3395 93.062 13.5632 93.0489 13.7902C93.0489 14.0319 93.0357 14.262 93.0174 14.4888C92.9937 14.7039 92.9589 14.9178 92.9132 15.1294L91.5491 22.0638H98.1227L99.5264 14.5268C99.6158 14.0203 99.682 13.5502 99.7267 13.1214C99.7706 12.7367 99.7938 12.3499 99.7962 11.9626C99.7962 10.6979 99.4188 9.68319 98.6639 8.9184C97.9091 8.15362 96.9076 7.77288 95.6594 7.77619C94.6785 7.76644 93.7109 8.00323 92.8453 8.46483C91.9441 8.96285 91.1729 9.66605 90.594 10.5175C90.2629 9.59214 89.7928 8.9002 89.2084 8.44993C88.5884 7.98757 87.8294 7.74997 87.0564 7.77619C86.2308 7.77872 85.4182 7.98272 84.6892 8.37047C83.8209 8.85811 83.0381 9.48437 82.3717 10.2245L82.774 8.23804H76.6342L74.0518 22.0787L80.5856 22.0721ZM71.4065 22.0721L73.9657 8.23142H67.4319L64.8892 22.0721H71.4065ZM73.8581 6.48003C74.6306 5.78256 75.0169 4.95487 75.0169 3.99696C75.0262 3.57699 74.9438 3.16004 74.7754 2.7752C74.607 2.39037 74.3567 2.04691 74.0418 1.76882C73.3701 1.16681 72.4917 0.847714 71.5902 0.878223C70.5631 0.858513 69.5673 1.23152 68.8059 1.92111C68.0334 2.61858 67.6471 3.4391 67.6471 4.38266C67.6389 4.80438 67.7228 5.2228 67.8929 5.60877C68.063 5.99474 68.3152 6.33896 68.6321 6.61743C69.2986 7.22403 70.1746 7.54809 71.0754 7.52126C72.1016 7.54067 73.0967 7.16833 73.8581 6.48003ZM60.9081 22.0737L62.5419 13.2125H64.5482L65.4868 8.23142H63.4789L64.189 4.36445H57.6685L56.96 8.23142H55.2334L54.2948 13.2108H56.0214L54.3958 22.0721L60.9081 22.0737ZM54.4521 1.32518H47.9961L44.1688 22.0721H50.6066L54.4521 1.32518ZM27.7673 13.2671C27.7491 13.3581 27.726 13.4724 27.6995 13.6147C27.4335 15.0703 27.3 16.0923 27.2989 16.6805C27.2989 18.5378 27.9207 19.9835 29.1645 21.0176C30.4082 22.0516 32.142 22.5681 34.3657 22.567C36.9039 22.567 38.8087 21.96 40.0801 20.7461C41.3514 19.5321 42.2607 17.4442 42.8081 14.4821L43.9669 8.23142H37.6334L36.5872 13.9061C36.3378 15.2304 36.1016 16.0581 35.8787 16.3891C35.7723 16.5533 35.6244 16.6865 35.45 16.7751C35.2756 16.8638 35.0808 16.9048 34.8855 16.894C34.7461 16.9017 34.6067 16.8787 34.4771 16.8266C34.3475 16.7745 34.231 16.6947 34.1356 16.5927C33.9452 16.3508 33.8498 16.0476 33.8674 15.7402C33.8896 15.362 33.945 14.9864 34.033 14.6179C34.0793 14.4027 34.1108 14.2388 34.129 14.1213L35.1934 8.23142H28.6877L27.7673 13.2671ZM6.63642 22.0721L8.60632 15.088C8.77186 14.5235 8.90429 13.9806 9.02017 13.4541C9.13604 12.9277 9.22378 12.4113 9.28668 11.9014L10.3859 22.0754H14.4134L17.8119 14.7569C18.0701 14.2051 18.3046 13.6649 18.5154 13.1363C18.7262 12.6077 18.9166 12.0995 19.0865 11.6117L18.2307 22.0787H24.7645L25.6898 2.48229H18.5386L13.839 13.1297C13.839 12.3616 13.8257 11.6216 13.7943 10.9065C13.7628 10.1914 13.7181 9.49779 13.6552 8.82074L12.9931 2.47567H5.86336L0 22.0721H6.63642Z" fill="#C6C6C5"/>
<path d="M160.901 30.27C160.835 29.7585 160.792 29.4323 160.756 29.1493C160.408 29.0332 160.045 28.9696 159.678 28.9606C158.576 28.9606 157.917 29.6227 157.917 30.409C157.917 31.3294 158.779 31.725 159.329 32.0114C159.971 32.3425 160.445 32.6223 160.445 33.2232C160.445 33.8241 160.065 34.1982 159.415 34.1982C158.523 34.1982 158.139 33.3788 158.011 32.8739L157.756 32.9318C157.81 33.3555 157.886 33.776 157.985 34.1916C158.122 34.2595 158.265 34.3149 158.412 34.3571C158.684 34.4354 158.966 34.476 159.249 34.4779C160.39 34.4779 161.153 33.7959 161.153 32.9434C161.153 32.023 160.349 31.6489 159.663 31.3162C158.978 30.9834 158.576 30.7053 158.576 30.111C158.576 29.6707 158.869 29.2254 159.529 29.2254C160.271 29.2254 160.504 29.7833 160.65 30.2981L160.896 30.2567L160.901 30.27ZM154.075 29.2387C155.204 29.2387 156.147 30.1508 156.147 31.8674C156.147 33.4301 155.296 34.1849 154.34 34.1849C153.131 34.1849 152.247 33.0725 152.247 31.5363C152.247 30.0001 153.123 29.2337 154.068 29.2337L154.075 29.2387ZM154.257 28.9424C152.449 28.9424 151.37 30.3014 151.37 31.7664C151.37 33.3341 152.601 34.473 154.154 34.473C155.707 34.473 157.029 33.4168 157.029 31.6621C157.029 30.0283 155.723 28.9606 154.277 28.9606L154.257 28.9424ZM150.79 34.3703V34.1419C150.088 34.0939 150.021 34.0542 150.021 33.3523V30.0978C150.021 29.4092 150.088 29.3595 150.79 29.3115V29.0831H148.522V29.3115C149.224 29.3595 149.294 29.4092 149.294 30.0978V33.3523C149.294 34.0459 149.224 34.0939 148.522 34.1419V34.3703H150.79ZM147.759 32.9484C147.331 33.7529 146.869 34.1982 145.995 34.1982C144.694 34.1982 143.753 33.1586 143.753 31.6373C143.753 30.3991 144.515 29.2519 145.942 29.2519C146.869 29.2519 147.382 29.6028 147.615 30.4636L147.86 30.3991C147.811 29.9703 147.759 29.636 147.695 29.1807C147.199 29.0526 146.692 28.9787 146.18 28.9606C144.27 28.9606 142.886 30.0846 142.886 31.7995C142.886 33.094 143.818 34.4912 145.947 34.4912C146.478 34.472 147.006 34.4016 147.524 34.281C147.721 33.8762 147.887 33.4574 148.021 33.0278L147.759 32.9484ZM139.059 31.8078V29.7899C139.059 29.5615 139.085 29.4737 139.156 29.4323C139.3 29.3639 139.46 29.3359 139.618 29.3512C140.259 29.3512 140.87 29.6823 140.87 30.5547C140.884 30.7492 140.847 30.9441 140.765 31.1208C140.682 31.2975 140.556 31.4502 140.398 31.5645C140.184 31.73 139.901 31.7995 139.473 31.7995L139.059 31.8078ZM142.648 34.2329C142.408 34.1715 142.193 34.038 142.032 33.8506C141.777 33.5883 141.546 33.3048 141.34 33.003C141.083 32.6355 140.724 32.0925 140.578 31.8326C141.202 31.5628 141.663 31.1324 141.663 30.4338C141.672 30.2211 141.623 30.0099 141.522 29.8223C141.422 29.6348 141.272 29.4778 141.09 29.3678C140.774 29.1642 140.353 29.0913 139.729 29.0913H137.607V29.3198C138.269 29.3761 138.342 29.4009 138.342 30.0928V33.3606C138.342 34.0542 138.272 34.1022 137.572 34.1502V34.3786H139.814V34.1419C139.136 34.0939 139.059 34.0459 139.059 33.3523V32.0594H139.335C139.772 32.0594 139.918 32.1571 140.064 32.3905C140.318 32.7895 140.628 33.2943 140.926 33.6933C141.313 34.223 141.663 34.3985 142.313 34.4316L142.611 34.4399L142.648 34.2329ZM135.235 28.166L134.866 27.719C134.472 27.964 133.983 28.2719 133.521 28.5467L133.632 28.7487L135.217 28.2272L135.235 28.166ZM133.998 29.2536C135.132 29.2536 136.074 30.1657 136.074 31.8823C136.074 33.445 135.225 34.1998 134.268 34.1998C133.06 34.1998 132.176 33.0874 132.176 31.5512C132.176 30.015 133.051 29.2486 133.997 29.2486L133.998 29.2536ZM134.185 28.9606C132.379 28.9606 131.302 30.3196 131.302 31.7846C131.302 33.3523 132.533 34.4912 134.084 34.4912C135.635 34.4912 136.94 33.4168 136.94 31.6621C136.94 30.0283 135.634 28.9606 134.185 28.9606ZM130.378 30.27C130.31 29.7585 130.265 29.4323 130.234 29.1493C129.885 29.0338 129.522 28.9702 129.155 28.9606C128.049 28.9606 127.392 29.6227 127.392 30.409C127.392 31.3294 128.254 31.725 128.802 32.0114C129.444 32.3425 129.916 32.6223 129.916 33.2232C129.916 33.8241 129.54 34.1982 128.886 34.1982C127.996 34.1982 127.612 33.3788 127.484 32.8739L127.228 32.9318C127.287 33.3225 127.393 34.0227 127.459 34.1916C127.596 34.2596 127.738 34.315 127.885 34.3571C128.158 34.4356 128.441 34.4762 128.726 34.4779C129.865 34.4779 130.625 33.7959 130.625 32.9434C130.625 32.023 129.823 31.6489 129.145 31.3162C128.466 30.9834 128.057 30.7053 128.057 30.111C128.057 29.6707 128.348 29.2254 129.009 29.2254C129.752 29.2254 129.984 29.7833 130.13 30.2981L130.378 30.27ZM126.668 29.0831H124.644V29.3115C125.243 29.3347 125.438 29.4406 125.483 29.8081C125.535 30.2564 125.554 30.7078 125.543 31.1589V33.1603H125.518L121.935 29.0831H120.676V29.3115C121.078 29.343 121.258 29.4092 121.439 29.6128C121.593 29.7965 121.604 29.8396 121.604 30.4405V32.2299C121.604 32.9699 121.578 33.3672 121.553 33.6205C121.51 34.0194 121.288 34.1253 120.8 34.1485V34.377H122.828V34.1419C122.245 34.1104 122.05 34.0128 122 33.5989C121.958 33.1416 121.941 32.6824 121.949 32.2233V30.1806H121.965L125.607 34.4415H125.872V31.1655C125.861 30.7064 125.877 30.247 125.922 29.7899C125.955 29.4406 126.162 29.3347 126.64 29.3115L126.668 29.0831ZM117.269 29.2486C118.398 29.2486 119.343 30.1607 119.343 31.8773C119.343 33.44 118.492 34.1949 117.535 34.1949C116.327 34.1949 115.443 33.0825 115.443 31.5463C115.443 30.0101 116.319 29.2436 117.264 29.2436L117.269 29.2486ZM117.454 28.9523C115.645 28.9523 114.567 30.3113 114.567 31.7764C114.567 33.344 115.799 34.4829 117.352 34.4829C118.904 34.4829 120.209 33.4086 120.209 31.6539C120.209 30.02 118.901 28.9523 117.454 28.9523ZM113.534 32.2283C112.892 33.4351 112.2 34.1055 110.886 34.1055C108.932 34.1055 107.522 32.5445 107.522 30.2633C107.522 28.4077 108.663 26.6861 110.808 26.6861C112.197 26.6861 112.96 27.2125 113.313 28.507L113.685 28.4093C113.607 27.7654 113.531 27.2621 113.43 26.5884C113.068 26.5288 112.197 26.2573 111.154 26.2573C108.292 26.2573 106.213 27.9392 106.213 30.5133C106.213 32.4518 107.61 34.5508 110.808 34.5508C111.604 34.5219 112.395 34.416 113.17 34.2346C113.463 33.6282 113.709 33 113.905 32.3557L113.534 32.2283Z" fill="#333B48"/>
<path d="M121.909 38.2948C132.515 41.7992 143.805 44.0472 152.797 44.0489C163.737 44.0489 171.279 40.7232 170.084 32.2957C167.669 36.8877 164.492 45.7158 121.912 38.2997" fill="url(#paint0_linear_1254_58354)"/>
<path d="M34.332 29.3753C88.0226 26.1093 157.868 15.6887 170.081 32.8136C170.171 24.9141 165.807 20.0671 139.8 20.0671C119.895 20.0671 87.3141 22.8995 34.332 29.3687" fill="url(#paint1_linear_1254_58354)"/>
<path d="M165.571 21.1266C166.569 21.5017 167.625 21.6994 168.691 21.711C170.572 21.711 172.088 21.2276 173.229 20.2642C174.369 19.3007 174.942 18.0294 174.942 16.4568C174.942 15.5739 174.741 14.8345 174.339 14.2386C173.937 13.646 173.315 13.1576 172.466 12.7752L171.638 12.3846C171.558 12.3515 171.443 12.2985 171.289 12.219C170.766 11.979 170.501 11.7506 170.501 11.5354C170.5 11.4521 170.519 11.37 170.556 11.2955C170.593 11.221 170.647 11.1563 170.714 11.1066C170.873 10.9893 171.067 10.9308 171.264 10.9411C171.684 10.9564 172.094 11.0789 172.454 11.297C172.941 11.5764 173.391 11.9156 173.793 12.3068L176.001 8.58547C175.142 8.04635 174.218 7.61702 173.252 7.30752C172.377 7.03805 171.466 6.90025 170.55 6.89864C168.807 6.89864 167.389 7.35718 166.284 8.27095C165.756 8.68936 165.332 9.22433 165.045 9.83401C164.757 10.4437 164.615 11.1115 164.629 11.7853C164.614 12.5014 164.82 13.2048 165.218 13.7999C165.611 14.3743 166.212 14.8825 167.039 15.3179L168.084 15.8675L168.18 15.9072C168.802 16.2383 169.113 16.5329 169.113 16.7912C169.115 16.8716 169.098 16.9513 169.062 17.0234C169.026 17.0955 168.973 17.1578 168.908 17.205C168.755 17.3186 168.569 17.3769 168.378 17.3706C167.871 17.3706 167.29 17.1901 166.637 16.8293C165.909 16.4103 165.241 15.8953 164.651 15.298L162.202 19.3802C163.247 20.0953 164.375 20.6811 165.561 21.125L165.571 21.1266ZM156.263 9.34363C155.879 8.60184 155.313 7.97002 154.617 7.50782C153.931 7.09506 153.142 6.88607 152.341 6.90526C151.383 6.90178 150.441 7.14583 149.605 7.61376C148.695 8.13855 147.908 8.85132 147.296 9.70451C146.674 10.5373 146.192 11.466 145.87 12.4541C145.54 13.4493 145.372 14.4912 145.374 15.5397C145.374 17.3518 145.853 18.8284 146.812 19.9695C147.518 20.8179 148.497 21.3945 149.582 21.6007C150.666 21.8069 151.788 21.63 152.757 21.1001C153.507 20.6505 154.152 20.0461 154.65 19.3272L154.154 21.1879H160.299L162.866 7.3489H156.509L156.263 9.34363ZM154.824 12.9689C155.119 13.2983 155.271 13.7311 155.246 14.1724C155.27 14.7336 155.078 15.2825 154.71 15.7069C154.536 15.9023 154.321 16.0569 154.08 16.1599C153.84 16.2629 153.579 16.3117 153.318 16.3029C153.124 16.3147 152.931 16.2852 152.75 16.2161C152.569 16.147 152.405 16.04 152.268 15.9022C152.023 15.6324 151.897 15.25 151.897 14.7435C151.873 14.1662 152.055 13.5991 152.409 13.1427C152.562 12.9452 152.758 12.7862 152.983 12.6784C153.208 12.5706 153.456 12.517 153.705 12.522C153.912 12.5136 154.118 12.5484 154.311 12.6242C154.504 12.7 154.679 12.8152 154.824 12.9623V12.9689ZM143.271 16.0545C142.966 16.2201 142.643 16.3527 142.31 16.4502C142.027 16.5312 141.735 16.5735 141.44 16.576C140.778 16.576 140.254 16.3873 139.861 16.0082C139.662 15.8101 139.506 15.5723 139.404 15.3102C139.303 15.0482 139.257 14.7677 139.27 14.4869C139.257 14.1606 139.31 13.8349 139.426 13.5296C139.542 13.2243 139.719 12.9457 139.946 12.7107C140.176 12.4816 140.451 12.3024 140.754 12.1845C141.057 12.0666 141.381 12.0124 141.705 12.0253C142.056 12.0294 142.404 12.0978 142.73 12.2273C143.141 12.3907 143.534 12.5966 143.902 12.8415L144.837 7.68991C144.267 7.43213 143.671 7.23462 143.059 7.10059C141.289 6.72419 139.446 6.87733 137.762 7.54093C136.719 7.96842 135.776 8.60697 134.991 9.41647C134.256 10.17 133.683 11.0649 133.304 12.0469C132.906 13.0687 132.705 14.1567 132.712 15.2533C132.712 17.1526 133.338 18.7048 134.592 19.9099C135.846 21.115 137.459 21.7148 139.432 21.7093C139.892 21.7061 140.351 21.6634 140.803 21.5819C141.34 21.4837 141.869 21.3516 142.389 21.1862L143.271 16.0545ZM125.959 21.1862L127.083 15.015C127.27 13.982 127.552 13.2685 127.928 12.8812C128.303 12.4938 128.866 12.2985 129.628 12.2985C129.962 12.3034 130.295 12.3439 130.621 12.4193C131.036 12.5135 131.447 12.6307 131.849 12.7703L132.892 7.1188C132.535 7.05093 132.23 6.99465 131.977 6.95327C131.753 6.9202 131.527 6.90195 131.301 6.89864C130.547 6.88557 129.805 7.08523 129.159 7.47471C128.478 7.91868 127.913 8.5199 127.512 9.22776L127.981 7.34228H122.011L119.429 21.1813L125.959 21.1862ZM112.955 9.34363C112.573 8.60079 112.006 7.96862 111.309 7.50782C110.623 7.09489 109.834 6.88589 109.033 6.90526C108.075 6.90216 107.133 7.14618 106.297 7.61376C105.388 8.1399 104.601 8.85243 103.987 9.70451C103.367 10.5372 102.887 11.4661 102.567 12.4541C102.236 13.4491 102.069 14.4911 102.071 15.5397C102.071 17.3518 102.55 18.8284 103.507 19.9695C104.214 20.8179 105.193 21.3945 106.277 21.6007C107.361 21.8069 108.484 21.63 109.452 21.1001C110.2 20.6494 110.844 20.0451 111.341 19.3272L110.844 21.1879H116.986L119.555 7.3489H113.196L112.955 9.34363ZM111.518 12.9689C111.811 13.2991 111.963 13.7314 111.94 14.1724C111.962 14.7334 111.771 15.282 111.404 15.7069C111.229 15.9023 111.014 16.0569 110.774 16.1599C110.533 16.2629 110.273 16.3117 110.011 16.3029C109.818 16.3147 109.624 16.285 109.443 16.216C109.261 16.1469 109.097 16.0399 108.96 15.9022C108.715 15.6324 108.593 15.25 108.593 14.7435C108.569 14.167 108.748 13.6003 109.099 13.1427C109.253 12.9452 109.45 12.7863 109.676 12.6785C109.901 12.5707 110.149 12.5171 110.399 12.522C110.606 12.513 110.812 12.5475 111.005 12.6233C111.198 12.6992 111.372 12.8147 111.518 12.9623V12.9689ZM81.4677 21.1879L82.59 15.0431C82.7975 13.8932 83.0326 13.108 83.2952 12.6875C83.4012 12.495 83.5574 12.3348 83.7471 12.2241C83.9369 12.1133 84.1532 12.0561 84.3729 12.0585C84.4823 12.0529 84.5916 12.0721 84.6926 12.1149C84.7935 12.1576 84.8834 12.2226 84.9556 12.3051C85.1054 12.5129 85.1785 12.7662 85.1625 13.0219C85.1613 13.2099 85.1502 13.3978 85.1294 13.5847C85.1046 13.7916 85.0715 14.0135 85.0268 14.2469L83.6495 21.1813H90.2611L91.3851 15.0365C91.5903 13.8865 91.8249 13.1013 92.0886 12.6809C92.1946 12.4884 92.3508 12.3282 92.5405 12.2175C92.7303 12.1067 92.9465 12.0494 93.1663 12.0518C93.2709 12.0461 93.3755 12.0635 93.4725 12.103C93.5695 12.1425 93.6566 12.2031 93.7274 12.2803C93.869 12.4577 93.9403 12.681 93.9277 12.9077C93.9277 13.1494 93.9162 13.3811 93.8946 13.6062C93.8749 13.8261 93.8412 14.0445 93.7937 14.2601L92.4296 21.1945H99.0031L100.415 13.6509C100.506 13.1444 100.571 12.6759 100.617 12.2472C100.659 11.8623 100.681 11.4755 100.683 11.0884C100.683 9.82259 100.306 8.80784 99.5527 8.04416C98.799 7.28048 97.7969 6.89864 96.5466 6.89864C95.562 6.88823 94.5907 7.12622 93.7225 7.59059C92.8226 8.08913 92.0525 8.79228 91.4745 9.64326C91.1346 8.71624 90.6727 8.02706 90.0889 7.57569C89.469 7.11263 88.7103 6.8739 87.9369 6.89864C87.1163 6.89903 86.308 7.09841 85.5813 7.47968C84.7061 7.96921 83.9171 8.59888 83.2456 9.34363L83.6495 7.35718H77.5246L74.9422 21.1962L81.4677 21.1879ZM72.2903 21.1879L74.8478 7.3489H68.3174L65.7714 21.1879H72.2903ZM74.7419 5.59585C75.5144 4.89949 75.9007 4.0718 75.9007 3.11278C75.9091 2.6936 75.8259 2.27763 75.6569 1.89393C75.488 1.51023 75.2373 1.16804 74.9223 0.891263C74.2521 0.288709 73.3747 -0.0310468 72.474 -0.000987063C71.4466 -0.019615 70.4506 0.353222 69.688 1.0419C68.9155 1.73937 68.5292 2.56044 68.5292 3.50511C68.5225 3.92557 68.6067 4.34253 68.7761 4.72741C68.9455 5.11228 69.1962 5.45597 69.5109 5.73491C70.1768 6.34431 71.0536 6.67082 71.9559 6.64536C72.9833 6.66433 73.9794 6.29144 74.7419 5.60247V5.59585ZM61.7902 21.1945L63.4224 12.3333H65.4337L66.369 7.35552H64.3627L65.0712 3.4869H58.5506L57.8438 7.35552H56.1172L55.1786 12.3333H56.9068L55.2845 21.1945H61.7902ZM55.3342 0.447621H48.8782L45.0543 21.1879H51.4904L55.3342 0.447621ZM28.6478 12.3796L28.5833 12.7289C28.3173 14.1823 28.1832 15.2042 28.181 15.7947C28.181 17.652 28.8034 19.0977 30.0483 20.1317C31.2931 21.1658 33.0274 21.6834 35.2511 21.6845C37.7894 21.6845 39.6942 21.0775 40.9655 19.8636C42.2368 18.6496 43.1467 16.5611 43.6952 13.598L44.8457 7.3489H38.5155L37.471 13.0219C37.2194 14.3462 36.986 15.1739 36.7608 15.505C36.6535 15.6677 36.5052 15.7993 36.3309 15.8865C36.1565 15.9737 35.9622 16.0134 35.7676 16.0016C35.6281 16.0097 35.4886 15.9869 35.359 15.9348C35.2293 15.8827 35.1128 15.8026 35.0177 15.7003C34.8272 15.4592 34.7323 15.1562 34.7512 14.8494C34.7738 14.4712 34.8292 14.0957 34.9167 13.7271C34.9631 13.5119 34.9946 13.3463 35.0144 13.2305L36.0838 7.34228H29.5781L28.6478 12.3796ZM7.52186 21.1879L9.48846 14.2005C9.65399 13.6377 9.78642 13.0947 9.9023 12.5683C10.0181 12.0556 10.1082 11.5373 10.1721 11.0156L11.2696 21.1879H15.2988L18.699 13.8661C18.9556 13.3132 19.1956 12.7752 19.4009 12.2472C19.6061 11.7191 19.7982 11.2126 19.9687 10.7226L19.1128 21.1879H25.6417L26.5687 1.59149H19.4224L14.7228 12.2472C14.7228 11.4747 14.7068 10.7336 14.6748 10.024C14.645 9.31053 14.597 8.61527 14.5374 7.93822L13.8752 1.59149H6.74383L0.883789 21.1879H7.52186Z" fill="#00285D"/>
</g>
<defs>
<linearGradient id="paint0_linear_1254_58354" x1="170.176" y1="44.0489" x2="122.029" y2="44.0489" gradientUnits="userSpaceOnUse">
<stop offset="0.697917" stop-color="#00285D" stop-opacity="0.9"/>
<stop offset="1" stop-color="#00285D" stop-opacity="0"/>
</linearGradient>
<linearGradient id="paint1_linear_1254_58354" x1="35.6369" y1="32.8135" x2="170.176" y2="32.8135" gradientUnits="userSpaceOnUse">
<stop stop-color="#00285D" stop-opacity="0"/>
<stop offset="1" stop-color="#00285D" stop-opacity="0.9"/>
</linearGradient>
<clipPath id="clip0_1254_58354">
<rect width="176" height="45.71" fill="white"/>
</clipPath>
</defs>
</svg>
